<svg xmlns="http://www.w3.org/2000/svg" width="189.574" height="266.848" viewBox="0 0 189.574 266.848">
  <g id="logo" transform="translate(-383.426 -113)">
    <g id="Path_4" data-name="Path 4" transform="translate(383.426 113)" fill="none">
      <path d="M94.787,0c52.349,0,94.787,43.988,94.787,98.249,0,31.2-11.966,48.051-26.388,63-3.761,3.094-17.719,14.166-23.075,40.362v18.613s-1.649,4.777-12.98,8.969S109.4,237,94.787,237c-15.08,0-24.778-3.609-36.883-7.8s-11.538-8.969-11.538-8.969,1.5-3.236,0-18.613c-1.2-12.333-17.383-40.323-23.075-40.362C10.311,146.3,0,128.31,0,98.249,0,43.988,42.438,0,94.787,0Z" stroke="none"/>
      <path d="M 94.78707122802734 7 C 46.381103515625 7 7 47.93431091308594 7 98.2493896484375 C 7 126.9112396240234 17.24601745605469 143.3402099609375 27.59048461914063 155.511962890625 C 39.09664916992188 161.8828735351563 52.32331848144531 190.5953063964844 53.33311462402344 200.9303436279297 C 53.9219970703125 206.9570617675781 54.3634033203125 214.3728179931641 53.68629455566406 219.3643798828125 C 54.54782104492188 220.0683898925781 56.41691589355469 221.2705688476563 60.195068359375 222.5791931152344 L 61.78545379638672 223.1309967041016 C 72.82907104492188 226.96630859375 81.55199432373047 229.9956970214844 94.78707122802734 229.9956970214844 C 105.6879959106445 229.9956970214844 111.1231460571289 227.8791198730469 119.3502655029297 224.6753082275391 L 124.7010726928711 222.6286926269531 C 129.8489074707031 220.7238159179688 132.23779296875 218.8576202392578 133.1102600097656 218.1402435302734 L 133.1102600097656 200.9027709960938 L 133.2521514892578 200.2088470458984 C 137.0746154785156 181.5136566162109 145.5825347900391 166.6418151855469 158.1479949951172 156.3887023925781 C 173.2279510498047 140.7579345703125 182.5741424560547 125.5798873901367 182.5741424560547 98.2493896484375 C 182.5741424560547 47.93431091308594 143.1930236816406 7 94.78707122802734 7 M 94.78707122802734 0 C 147.1364898681641 0 189.5741424560547 43.98777770996094 189.5741424560547 98.2493896484375 C 189.5741424560547 129.4498138427734 177.6078338623047 146.2999572753906 163.1857299804688 161.2488861083984 C 159.4245300292969 164.3429260253906 145.4664154052734 175.4148864746094 140.1102600097656 201.611083984375 L 140.1102600097656 220.2243499755859 C 140.1102600097656 220.2243499755859 138.4611511230469 225.0008544921875 127.1303405761719 229.1936492919922 C 115.7995300292969 233.3865356445313 109.4023056030273 236.9956970214844 94.78707122802734 236.9956970214844 C 79.70742034912109 236.9956970214844 70.00922393798828 233.3865356445313 57.90403747558594 229.1936492919922 C 45.79884338378906 225.0008544921875 46.36630249023438 220.2243499755859 46.36630249023438 220.2243499755859 C 46.36630249023438 220.2243499755859 47.86883544921875 216.9882354736328 46.36630249023438 201.611083984375 C 45.16134643554688 189.2785034179688 28.98326110839844 161.2880859375 23.29087829589844 161.2488861083984 C 10.3109130859375 146.2999572753906 0 128.3103485107422 0 98.2493896484375 C 0 43.98777770996094 42.43760681152344 0 94.78707122802734 0 Z" stroke="none" fill="#06d436"/>
    </g>
    <path id="Path_5" data-name="Path 5" d="M0,0S22.989,13.048,45.2,13.048,88.851,0,88.851,0" transform="translate(432.019 350.775)" fill="none" stroke="#06d436" stroke-width="7"/>
    <path id="Path_6" data-name="Path 6" d="M0,0S22.989,13.048,45.2,13.048,88.851,0,88.851,0" transform="translate(432.019 363.3)" fill="none" stroke="#06d436" stroke-width="7"/>
    <g id="Path_7" data-name="Path 7" transform="translate(469.489 148.338) rotate(16)" fill="#9be8bd">
      <path d="M 30.87982940673828 112.6192321777344 L 30.7006893157959 75.69941711425781 L 30.68386840820313 72.23351287841797 L 27.21798896789551 72.21643829345703 L 3.993138551712036 72.10196685791016 L 23.4260311126709 19.10932731628418 L 23.59328842163086 53.58173751831055 L 23.61010932922363 57.04763793945313 L 27.07598876953125 57.06471633911133 L 51.74430465698242 57.18630218505859 L 30.87982940673828 112.6192321777344 Z" stroke="none"/>
      <path d="M 20.02036285400391 38.56228637695313 L 8.995502471923828 68.62659454345703 L 34.1670036315918 68.75066375732422 L 34.28773498535156 93.62937927246094 L 46.69657516479492 60.66145324707031 L 20.12695693969727 60.53049468994141 L 20.02036285400391 38.56228637695313 M 26.83169555664063 -0.3436279296875 L 27.09324264526367 53.56475830078125 L 56.79205322265625 53.71114349365234 L 27.47193336486816 131.6091003417969 L 27.20071792602539 75.71640014648438 L -1.009235382080078 75.57735443115234 L 26.83169555664063 -0.3436279296875 Z" stroke="none" fill="#06d436"/>
    </g>
  </g>
</svg>
